# xmcd
#
# Track frame offsets:
#	150
#	3942
#	23169
#	41197
#	58165
#	80229
#	102857
#	119540
#
# Disc length: 1880 seconds
#
# Revision: 3
# Processed by: cddbd v1.5.2PL0 Copyright (c) Steve Scherf et al.
# Submitted via: audiograbber 1.83.01
#
DISCID=67075608
DTITLE=Various Artist - stereoplay Masterpieces Volume 5
DYEAR=2007
DGENRE=Misc
TTITLE0=Allan Taylor - Chris Jones - Studio Session Talk
TTITLE1=Allan Taylor - Chris Jones - The Tennessee Waltz
TTITLE2=Sara K. - Made In The Shade
TTITLE3=Eugene Ruffolo - Beyond Love
TTITLE4=Beoga - A Delicate Thing
TTITLE5=Ewen Carruthers - The Amber Room
TTITLE6=Blue Chamber Quartet - Children's Song 12 and 16
TTITLE7=Gergely Bogányi - Nocturne Es-Dur op. 9 Nr. 2
EXTD=
EXTT0=
EXTT1=
EXTT2=
EXTT3=
EXTT4=
EXTT5=
EXTT6=
EXTT7=
PLAYORDER=
